<svg xmlns="http://www.w3.org/2000/svg" viewBox="0 0 60 60"><defs><style>.cls-1{fill:#010101;}</style></defs><g id="Layer_2" data-name="Layer 2"><g id="Layer_1-2" data-name="Layer 1"><path class="cls-1" d="M41.7,60V1.38A1.38,1.38,0,0,0,40.32,0H19.68A1.38,1.38,0,0,0,18.3,1.38V60m2.75-2V2.75H39v55.1"/><path class="cls-1" d="M18.3,0V58.62A1.38,1.38,0,0,0,19.68,60H40.32a1.38,1.38,0,0,0,1.38-1.38V0M39,0V57.25H21.05V0"/><path class="cls-1" d="M0,41.7H58.62A1.38,1.38,0,0,0,60,40.32h0V19.68a1.38,1.38,0,0,0-1.38-1.38H0m2,2.75H57.25V39H2.15"/><path class="cls-1" d="M60,18.3H1.38A1.38,1.38,0,0,0,0,19.68H0V40.32A1.38,1.38,0,0,0,1.38,41.7H60M60,39H2.75V21.05H60"/></g></g></svg>