<svg xmlns="http://www.w3.org/2000/svg" viewBox="0 0 48.31 60"><defs><style>.cls-1{fill:#eae4d7;}</style></defs><g id="Layer_2" data-name="Layer 2"><g id="Layer_1-2" data-name="Layer 1"><path class="cls-1" d="M47.93,43l-9.36-5.62V14.42c0-4.57-4-6.7-7.81-7.7,0,0,0-.06,0-.1V.78A.78.78,0,0,0,30,0H18.31a.78.78,0,0,0-.78.78V6.62s0,.07,0,.1c-3.79,1-7.81,3.13-7.81,7.7V37.35L.38,43a.76.76,0,0,0-.38.67v3.89a.78.78,0,0,0,.78.78h11a12.45,12.45,0,0,0,24.85,0h11a.78.78,0,0,0,.78-.78V43.64a.76.76,0,0,0-.38-.67ZM19.09,5.84V1.56H29.22V6.37a29.27,29.27,0,0,0-5.06-.53,29.34,29.34,0,0,0-5.07.53Zm5.07,52.6A10.91,10.91,0,0,1,13.29,48.31H35A10.92,10.92,0,0,1,24.16,58.44ZM46.75,46.75H1.56V44.08l9.36-5.62a.79.79,0,0,0,.38-.67V14.42c0-6.93,12.73-7,12.86-7S37,7.48,37,14.42V37.79a.79.79,0,0,0,.38.67l9.36,5.62Z"/></g></g></svg>