<svg xmlns="http://www.w3.org/2000/svg" viewBox="0 0 44.42 60"><defs><style>.cls-1{fill:#010101;}</style></defs><g id="Layer_2" data-name="Layer 2"><g id="Layer_1-2" data-name="Layer 1"><path class="cls-1" d="M.78,60H43.64a.78.78,0,0,0,.78-.78v-3.9a.77.77,0,0,0-.78-.77H.78a.77.77,0,0,0-.78.77v3.9A.78.78,0,0,0,.78,60Zm.78-3.9h41.3v2.34H1.56Z"/><path class="cls-1" d="M28.05,0H16.36a.78.78,0,0,0-.78.78V34L7.17,25.55a.75.75,0,0,0-.64-.22A.78.78,0,0,0,6,25.7L.11,35.44a.79.79,0,0,0,.18,1L21.71,54l.12.06.08.05a.82.82,0,0,0,.3.07h0a.73.73,0,0,0,.29-.07l.09-.05A.39.39,0,0,0,22.7,54L44.13,36.45a.79.79,0,0,0,.17-1L38.46,25.7a.8.8,0,0,0-.57-.37.78.78,0,0,0-.65.22L28.83,34V.78A.78.78,0,0,0,28.05,0Zm9.59,27.36,5,8.31L22.21,52.37,1.79,35.67l5-8.31,9,9a.79.79,0,0,0,.85.16.77.77,0,0,0,.48-.72V1.56H27.27V35.84a.78.78,0,0,0,1.33.55Z"/></g></g></svg>