<svg xmlns="http://www.w3.org/2000/svg" xmlns:xlink="http://www.w3.org/1999/xlink" viewBox="0 0 283.46 283.46"><defs><style>.cls-1{fill:#0d3953;}.cls-2{isolation:isolate;}.cls-3{clip-path:url(#clip-path);}.cls-4{fill:#f9c2a7;}.cls-5{fill:#ededed;}.cls-10,.cls-5{mix-blend-mode:multiply;}.cls-6{fill:#e1b099;}.cls-7{fill:#fff;}.cls-8{fill:#002638;}.cls-9{fill:#f9b233;}.cls-10{fill:#dadada;}.cls-11{fill:#432918;}.cls-12{fill:#001b2e;}.cls-13{fill:#e9e9e9;}</style><clipPath id="clip-path"><circle class="cls-1" cx="141.73" cy="141.73" r="141.73" transform="translate(-28.86 246.97) rotate(-76.67)"/></clipPath></defs><g class="cls-2"><g id="Layer_2" data-name="Layer 2"><g id="Capa_1" data-name="Capa 1"><circle class="cls-1" cx="141.73" cy="141.73" r="141.73" transform="translate(-28.86 246.97) rotate(-76.67)"/><g class="cls-3"><rect class="cls-4" x="114.59" y="181.83" width="54.28" height="36.57"/><path class="cls-5" d="M127.76,208.29a73,73,0,0,0,26,5.27,84,84,0,0,0,15.15-1.46V181.83H114.59v18.92A45.69,45.69,0,0,0,127.76,208.29Z"/><path class="cls-4" d="M201.63,114.11c.19-1.33,2.52-3.5,3.54-4.23,2.27-1.62,4.56.05,5.23,2.17a27.41,27.41,0,0,1,.79,6,25.8,25.8,0,0,1-2.64,13.83,18.7,18.7,0,0,1-6.58,7.05s-3,1.43-3.57-1.87C198.4,137.06,201.63,114.12,201.63,114.11Z"/><path class="cls-6" d="M201.16,117c.13-.95,1.8-2.5,2.53-3,1.62-1.17,3.26,0,3.74,1.54a20,20,0,0,1,.57,4.3,18.47,18.47,0,0,1-1.89,9.9,13.39,13.39,0,0,1-4.71,5,1.69,1.69,0,0,1-2.55-1.33S201.16,117,201.16,117Z"/><path class="cls-4" d="M80.45,114.11c-.18-1.33-2.52-3.5-3.54-4.23-2.27-1.62-4.56.05-5.22,2.17a26.82,26.82,0,0,0-.79,6,25.7,25.7,0,0,0,2.63,13.83,18.78,18.78,0,0,0,6.58,7.05s3,1.43,3.57-1.87C83.68,137.06,80.45,114.12,80.45,114.11Z"/><path class="cls-6" d="M80.93,117c-.14-.95-1.8-2.5-2.53-3-1.63-1.17-3.27,0-3.74,1.54a18.86,18.86,0,0,0-.57,4.3,18.37,18.37,0,0,0,1.89,9.9,13.44,13.44,0,0,0,4.7,5,1.7,1.7,0,0,0,2.56-1.33S80.93,117,80.93,117Z"/><path class="cls-4" d="M203.45,118.43c0,15.13-2.69,30.44-10.06,43.53-6.44,11.46-16.1,20.63-26.47,28-8.41,5.94-17.44,12.86-28.08,12-11.1-.89-19.75-10.05-27.86-17.21A93.61,93.61,0,0,1,85,147.47a83.64,83.64,0,0,1-5-29c0-48.93,27.63-79.71,61.71-79.71S203.45,69.5,203.45,118.43Z"/><path class="cls-4" d="M236.52,234.94l-67.65-17.69H114.59L47,234.94S15.6,246.55,12.12,283.32H271.35C267.86,246.55,236.52,234.94,236.52,234.94Z"/><path class="cls-7" d="M236.52,234.94l-67.65-17.69H114.59L47,234.94S15.6,246.55,12.12,283.32H271.35C267.86,246.55,236.52,234.94,236.52,234.94Z"/><path class="cls-8" d="M236.52,234.94l-50.06-13.09-44.73,61.47-44.24-61.6L47,234.94S15.6,246.55,12.12,283.32H271.35C267.86,246.55,236.52,234.94,236.52,234.94Z"/><polygon class="cls-9" points="135.8 252.52 123.33 283.32 158.75 283.32 146.6 252.52 135.8 252.52"/><polygon class="cls-9" points="140.92 217.85 125.05 239.14 136.08 252.61 141.48 252.52 146.88 252.43 157.46 238.61 140.92 217.85"/><path class="cls-10" d="M151.52,236.35c-2,4-5.81,8.58-10.93,7.45-5.3-1.16-7.74-6.17-6.51-11.27s4.4-9.1,6.18-13.79l-15.21,20.4,11,13.47,10.8-.18,10.58-13.82L153,233Q152.33,234.71,151.52,236.35Z"/><path class="cls-11" d="M204.33,112.4S194.26,159.47,160.47,173c0,0-4.21,10.45-18.21,10.45S124,173,124,173C90.25,159.47,80.19,112.4,80.19,112.4c-2.94,52.68,35,75.58,35,75.58,20.65,16.9,27.1,14,27.1,14s6.45,2.9,27.1-14C169.36,188,206.89,166.63,204.33,112.4Z"/><path class="cls-11" d="M141.73,157.29S127.77,153,124,173c0,0-4-.51-10.22-5.52C113.82,167.49,123.2,144.08,141.73,157.29Z"/><path class="cls-11" d="M142.93,157.29s14-4.26,17.69,15.72c0,0,3.95-.51,10.22-5.52C170.84,167.49,161.46,144.08,142.93,157.29Z"/><path class="cls-11" d="M80.19,112.4s9-55.1,37.31-49.69c0,0,25.54,15.89,46.83-.37,0,0,25.82-.87,40,50.06,0,0,3.53-54.33-35.46-73.68,0,0-36.07-16.64-66.94,8.13C101.93,46.85,72.68,70,80.19,112.4Z"/><polygon class="cls-12" points="141.73 283.32 97.49 221.72 62.12 230.97 107.32 262.8 95.71 267.92 116.61 283.32 141.73 283.32"/><polygon class="cls-12" points="141.73 283.4 185.97 221.81 221.34 231.06 176.14 262.88 187.75 268 166.85 283.4 141.73 283.4"/><polygon class="cls-13" points="87.97 218.54 114.5 206.1 141.55 217.4 168.59 206.1 196.94 218.54 156.86 245.38 141.55 223.45 125.05 245.38 87.97 218.54"/></g></g></g></g></svg>