<svg xmlns="http://www.w3.org/2000/svg" viewBox="0 0 60 28.83"><defs><style>.cls-1{fill:#eae4d7;}</style></defs><g id="Layer_2" data-name="Layer 2"><g id="Layer_1-2" data-name="Layer 1"><path class="cls-1" d="M43.64,1.81,58,14.42,43.64,27l-.52.45a.78.78,0,0,0,1,1.17L59.73,15a.77.77,0,0,0,0-1.17L44.15.19a.78.78,0,0,0-1.1.08.79.79,0,0,0,.07,1.1Z"/><path class="cls-1" d="M46,19l5.84-3.9a.77.77,0,0,0,0-1.29L46,9.87a.8.8,0,0,0-.43-.13.76.76,0,0,0-.65.35.78.78,0,0,0,.21,1.08l.43.29,4.44,3-4.87,3.24A.78.78,0,0,0,46,19Z"/><path class="cls-1" d="M.78,15.19h44.8a.78.78,0,1,0,0-1.55H.78a.78.78,0,1,0,0,1.55Z"/></g></g></svg>