<svg xmlns="http://www.w3.org/2000/svg" viewBox="0 0 60 60"><defs><style>.cls-1{fill:#231e21;}</style></defs><g id="Layer_2" data-name="Layer 2"><g id="Layer_1-2" data-name="Layer 1"><path class="cls-1" d="M30,0A30,30,0,0,0,0,30,29.68,29.68,0,0,0,6,48L.11,58.82A.78.78,0,0,0,.78,60a.85.85,0,0,0,.35-.08l11.26-5.63A29.71,29.71,0,0,0,30,60,30,30,0,0,0,30,0Zm0,58.44a28.24,28.24,0,0,1-17.07-5.69.77.77,0,0,0-.46-.15.72.72,0,0,0-.35.08L2.64,57.42C3.52,55.79,5,53,7.58,48.25a.79.79,0,0,0-.07-.85A28.19,28.19,0,0,1,1.56,30,28.44,28.44,0,1,1,30,58.44Z"/><path class="cls-1" d="M18.31,25.32A4.68,4.68,0,1,0,23,30a4.68,4.68,0,0,0-4.68-4.68Zm0,7.8A3.12,3.12,0,1,1,21.43,30,3.12,3.12,0,0,1,18.31,33.12Z"/><path class="cls-1" d="M30,25.32A4.68,4.68,0,1,0,34.68,30,4.69,4.69,0,0,0,30,25.32Zm0,7.8A3.12,3.12,0,1,1,33.12,30,3.12,3.12,0,0,1,30,33.12Z"/><path class="cls-1" d="M41.69,25.32A4.68,4.68,0,1,0,46.36,30a4.69,4.69,0,0,0-4.67-4.68Zm0,7.8A3.12,3.12,0,1,1,44.8,30,3.12,3.12,0,0,1,41.69,33.12Z"/></g></g></svg>