<svg xmlns="http://www.w3.org/2000/svg" viewBox="0 0 44.42 60"><defs><style>.cls-1{fill:#eae4d7;}</style></defs><g id="Layer_2" data-name="Layer 2"><g id="Layer_1-2" data-name="Layer 1"><path class="cls-1" d="M25.89,27.71a6.63,6.63,0,1,0-7.37,0A16.38,16.38,0,0,0,5.84,43.64a.78.78,0,0,0,.78.78H37.79a.78.78,0,0,0,.78-.78A16.38,16.38,0,0,0,25.89,27.71Zm-8.75-5.5a5.07,5.07,0,1,1,5.07,5.06A5.08,5.08,0,0,1,17.14,22.21ZM7.42,42.86a14.81,14.81,0,0,1,29.57,0Z"/><path class="cls-1" d="M.78,60H43.64a.78.78,0,0,0,.78-.78V.78A.78.78,0,0,0,43.64,0H.78A.78.78,0,0,0,0,.78V59.22A.78.78,0,0,0,.78,60ZM1.56,1.56H5.84V6.62a.78.78,0,0,0,1.56,0V1.56h6.24V6.62a.78.78,0,0,0,1.56,0V1.56h6.23V6.62a.78.78,0,1,0,1.56,0V1.56h6.23V6.62a.78.78,0,1,0,1.56,0V1.56H37V6.62a.78.78,0,0,0,1.56,0V1.56h4.29V50.65H1.56Zm0,50.65h41.3v2.34H1.56Zm0,3.89h41.3v2.34H1.56Z"/></g></g></svg>