<svg xmlns="http://www.w3.org/2000/svg" viewBox="0 0 28.83 60"><defs><style>.cls-1{fill:#231e21;}</style></defs><g id="Layer_2" data-name="Layer 2"><g id="Layer_1-2" data-name="Layer 1"><path class="cls-1" d="M28.05,35.06a.78.78,0,0,0-.78.78V50.65h-7c4.51-2.91,4.64-8.88,4.65-9V10.53a11.83,11.83,0,0,0-3-7.74A10.1,10.1,0,0,0,14.42,0,10.08,10.08,0,0,0,6.94,2.79a11.71,11.71,0,0,0-3,7.73V41.7c0,.08.13,6,4.65,8.95h-7V35.84a.78.78,0,0,0-1.56,0V51.43a.78.78,0,0,0,.78.78H13.64v7a.78.78,0,0,0,1.56,0v-7H28.05a.78.78,0,0,0,.78-.78V35.84a.78.78,0,0,0-.78-.78ZM14.42,50.65c-8.74,0-9-8.61-9-9V10.51A10.33,10.33,0,0,1,8.05,3.87a8.64,8.64,0,0,1,6.37-2.31,8.63,8.63,0,0,1,6.36,2.31,10.43,10.43,0,0,1,2.6,6.65V41.68c0,.36-.23,9-9,9Z"/></g></g></svg>