<svg xmlns="http://www.w3.org/2000/svg" viewBox="0 0 28.83 60"><defs><style>.cls-1{fill:#010101;}</style></defs><g id="Layer_2" data-name="Layer 2"><g id="Layer_1-2" data-name="Layer 1"><path class="cls-1" d="M10.52,60C20.92,60,21,49.59,21,49.48V16.36c0-2.29-1.39-6.62-6.62-6.62s-6.63,4.33-6.63,6.62V43.64a.78.78,0,1,0,1.56,0V16.36c0-.2.06-5.06,5.07-5.06s5.06,4.86,5.06,5.06V49.48c0,.37-.1,9-9,9s-9-8.6-9-9v-39c0-.37.14-9,12.86-9s12.85,8.6,12.85,9v39a.78.78,0,1,0,1.56,0v-39C28.83,10.41,28.67,0,14.42,0S0,10.41,0,10.52v39C0,49.59.12,60,10.52,60Z"/></g></g></svg>