<svg xmlns="http://www.w3.org/2000/svg" viewBox="0 0 98.3 60"><defs><style>.cls-1{fill:#231e21;}</style></defs><g id="Layer_2" data-name="Layer 2"><g id="Layer_1-2" data-name="Layer 1"><path class="cls-1" d="M39.57,21.7a1.27,1.27,0,0,0,1.28-1.27V8.94h16.6V20.43a1.28,1.28,0,0,0,2.55,0V7.66a1.28,1.28,0,0,0-1.28-1.28H39.58A1.28,1.28,0,0,0,38.3,7.66V20.43a1.27,1.27,0,0,0,1.27,1.27Z"/><path class="cls-1" d="M40.85,39.57a1.28,1.28,0,0,0-2.55,0V52.34a1.28,1.28,0,0,0,1.27,1.28H58.72A1.28,1.28,0,0,0,60,52.34V39.57a1.28,1.28,0,0,0-2.55,0V51.06H40.85Z"/><path class="cls-1" d="M97,12.77H77.87A1.28,1.28,0,0,0,76.59,14V28.72H66.38V1.28A1.27,1.27,0,0,0,65.11,0H33.19a1.27,1.27,0,0,0-1.27,1.28V28.72H21.7V14a1.27,1.27,0,0,0-1.27-1.27H1.28A1.27,1.27,0,0,0,0,14V46a1.27,1.27,0,0,0,1.28,1.27H20.43A1.27,1.27,0,0,0,21.7,46V31.28H31.92V58.72A1.27,1.27,0,0,0,33.19,60H65.11a1.27,1.27,0,0,0,1.27-1.28V31.28H76.6V46a1.27,1.27,0,0,0,1.27,1.27H97A1.27,1.27,0,0,0,98.3,46V14A1.27,1.27,0,0,0,97,12.77ZM6.38,44.68H2.55V40.85H6.38Zm0-6.38H2.55V34.47H6.38Zm0-6.39H2.55V28.08H6.38Zm0-6.38H2.55V21.7H6.38Zm0-6.38H2.55V15.32H6.38Zm6.39,25.53H8.94V40.85h3.83Zm0-6.38H8.94V34.47h3.83Zm0-6.39H8.94V28.08h3.83Zm0-6.38H8.94V21.7h3.83Zm0-6.38H8.94V15.32h3.83Zm6.38,25.53H15.32V40.85h3.83Zm0-6.38H15.32V34.47h3.83Zm0-8.3v1.91H15.32V28.08h3.83Zm0-4.47H15.32V21.7h3.83Zm0-6.38H15.32V15.32h3.83Zm44.68,38.3H34.47V31.28h7.14a7.65,7.65,0,0,0,15.08,0h7.14ZM44,30a5.11,5.11,0,1,1,5.11,5.11A5.11,5.11,0,0,1,44,30Zm19.79-1.28H56.69a7.65,7.65,0,0,0-15.08,0H34.47V2.55H63.83ZM83,44.68H79.15V40.85H83Zm0-6.38H79.15V34.47H83Zm0-6.39H79.15V28.08H83Zm0-6.38H79.15V21.7H83Zm0-6.38H79.15V15.32H83Zm6.38,25.53H85.53V40.85h3.83Zm0-6.38H85.53V34.47h3.83Zm0-6.39H85.53V28.08h3.83Zm0-6.38H85.53V21.7h3.83Zm0-6.38H85.53V15.32h3.83Zm6.38,25.53H91.91V40.85h3.83Zm0-6.38H91.91V34.47h3.83Zm0-6.39H91.91V28.08h3.83Zm0-6.38H91.91V21.7h3.83Zm0-6.38H91.91V15.32h3.83Z"/></g></g></svg>