<svg xmlns="http://www.w3.org/2000/svg" viewBox="0 0 200 33.12"><defs><style>.cls-1{fill:#eae4d7;}</style></defs><g id="Layer_2" data-name="Layer 2"><g id="Layer_1-2" data-name="Layer 1"><path class="cls-1" d="M12.75,11.49v3H6.91v17.6H3.5V14.46H0v-3H3.5V5.82l3.41-.58v6.25Z"/><path class="cls-1" d="M24.1,10.12a7.94,7.94,0,0,1,7,3.37,12.11,12.11,0,0,1,1.78,8.39h-15a7.62,7.62,0,0,0,2,4.8,6.2,6.2,0,0,0,4.6,1.74,5.64,5.64,0,0,0,5-2.5l2.68,1.64A7.54,7.54,0,0,1,29,30.44a10.17,10.17,0,0,1-4.63,1.07,9.27,9.27,0,0,1-7.18-2.94,10.94,10.94,0,0,1-2.69-7.67,11.45,11.45,0,0,1,2.61-7.76A8.77,8.77,0,0,1,24.1,10.12Zm-.41-6.7L21.06,7.94H17.81L21.8,1h3.74l4,6.91H26.28ZM17.93,19.21H29.74A6.69,6.69,0,0,0,28.3,15a5,5,0,0,0-4.16-1.83,5.65,5.65,0,0,0-4.21,1.65A7.51,7.51,0,0,0,17.93,19.21Z"/><path class="cls-1" d="M48.12,11.22v3H42.28v17.6H38.87V14.18h-3.5v-3h3.5V5.54L42.28,5v6.26Z"/><path class="cls-1" d="M59.48,11.63a7.89,7.89,0,0,1,7,3.37,12.1,12.1,0,0,1,1.79,8.39h-15a7.56,7.56,0,0,0,2,4.79,6.17,6.17,0,0,0,4.61,1.75,5.67,5.67,0,0,0,5-2.51l2.67,1.65a7.52,7.52,0,0,1-3.19,2.87A10,10,0,0,1,59.76,33a9.25,9.25,0,0,1-7.17-2.94,10.88,10.88,0,0,1-2.7-7.67,11.38,11.38,0,0,1,2.62-7.75A8.72,8.72,0,0,1,59.48,11.63Zm-6.17,9.09h11.8a6.69,6.69,0,0,0-1.44-4.26,5,5,0,0,0-4.15-1.83,5.69,5.69,0,0,0-4.22,1.64A7.51,7.51,0,0,0,53.31,20.72Z"/><path class="cls-1" d="M72.1,15.71H87.24v3H72.1Z"/><path class="cls-1" d="M111,30.89h-3.37l-.7-3.58a7.12,7.12,0,0,1-6.74,4,8.16,8.16,0,0,1-6.61-3,11.76,11.76,0,0,1-2.48-7.73,11.64,11.64,0,0,1,2.48-7.63,8,8,0,0,1,6.52-3,7.15,7.15,0,0,1,6.42,3.38v-3H110V25.5ZM103.53,7.61h-3.7L93.57,0h4Zm-2.88,20.48a5.39,5.39,0,0,0,4-1.68,7.27,7.27,0,0,0,1.89-4.65v-2a7.82,7.82,0,0,0-1.93-4.85,5.46,5.46,0,0,0-4.16-1.81,5.09,5.09,0,0,0-4.23,2.14,8.36,8.36,0,0,0-1.65,5.26A8.54,8.54,0,0,0,96.23,26,5.32,5.32,0,0,0,100.65,28.09Z"/><path class="cls-1" d="M114.43,17h15.13v3H114.43Z"/><path class="cls-1" d="M144.41,12.55v3h-5.84V33.12h-3.41V15.51h-3.5v-3h3.5V6.88l3.41-.58v6.25Z"/><path class="cls-1" d="M155.77,9.4a7.91,7.91,0,0,1,7,3.37,12.12,12.12,0,0,1,1.79,8.39h-15a7.62,7.62,0,0,0,2,4.79,6.17,6.17,0,0,0,4.61,1.75,5.67,5.67,0,0,0,5-2.51l2.67,1.65a7.61,7.61,0,0,1-3.19,2.88,10.14,10.14,0,0,1-4.63,1.07,9.21,9.21,0,0,1-7.17-2.95,10.88,10.88,0,0,1-2.7-7.67,11.45,11.45,0,0,1,2.61-7.75A8.75,8.75,0,0,1,155.77,9.4Zm-.42-6.71-2.63,4.53h-3.25l4-6.91h3.75l4,6.91H158Zm-5.75,15.8h11.8A6.69,6.69,0,0,0,160,14.23a5,5,0,0,0-4.15-1.83A5.69,5.69,0,0,0,151.59,14,7.51,7.51,0,0,0,149.6,18.49Z"/><path class="cls-1" d="M179.79,10.88v3H174V31.45h-3.42V13.84H167v-3h3.49V5.2L174,4.63v6.25Z"/><path class="cls-1" d="M191.14,10a7.9,7.9,0,0,1,7,3.38,12.05,12.05,0,0,1,1.79,8.39h-15a7.59,7.59,0,0,0,2,4.79,6.19,6.19,0,0,0,4.61,1.75,5.67,5.67,0,0,0,5-2.51l2.67,1.64a7.42,7.42,0,0,1-3.19,2.88,10,10,0,0,1-4.62,1.07,9.27,9.27,0,0,1-7.18-2.94,10.89,10.89,0,0,1-2.69-7.67A11.43,11.43,0,0,1,184.17,13,8.73,8.73,0,0,1,191.14,10ZM185,19h11.8a6.68,6.68,0,0,0-1.44-4.25A5,5,0,0,0,191.18,13,5.7,5.7,0,0,0,187,14.6,7.57,7.57,0,0,0,185,19Z"/></g></g></svg>