<svg xmlns="http://www.w3.org/2000/svg" viewBox="0 0 60 13.25"><defs><style>.cls-1{fill:#231e21;}</style></defs><g id="Layer_2" data-name="Layer 2"><g id="Layer_1-2" data-name="Layer 1"><path class="cls-1" d="M60,6.62a6.63,6.63,0,1,0-6.62,6.63A6.63,6.63,0,0,0,60,6.62Zm-11.69,0a5.07,5.07,0,1,1,5.07,5.07A5.07,5.07,0,0,1,48.31,6.62Z"/><path class="cls-1" d="M36.62,6.62A6.62,6.62,0,1,0,30,13.25a6.63,6.63,0,0,0,6.62-6.63Zm-11.68,0A5.06,5.06,0,1,1,30,11.69,5.07,5.07,0,0,1,24.94,6.62Z"/><path class="cls-1" d="M13.25,6.62a6.63,6.63,0,1,0-6.63,6.63A6.63,6.63,0,0,0,13.25,6.62Zm-11.69,0a5.07,5.07,0,1,1,5.06,5.07A5.07,5.07,0,0,1,1.56,6.62Z"/></g></g></svg>